<svg height="512" viewBox="0 0 51 58" width="512" xmlns="http://www.w3.org/2000/svg"><g id="Page-1" fill="none" fill-rule="evenodd"><g id="023---Sleepy-Cat" fill-rule="nonzero"><path id="Shape" d="m6.34 33c-.37188033.0014689-.74321396-.0286393-1.11-.09-6.8-1.1-5.87-12.4-3.34-16.06.23676832-.4244399.63850959-.7320796 1.11-.85.5935114 2.4049712 2.00830019 4.5271544 4 6 3 2 5 2 6 5 1.22 5.85-6.66 6-6.66 6z" fill="#fb7b76"/><path id="Shape" d="m42 50s1 2-1 5c0 0-1.34-2.68-4-2.55-3.4523871 3.4617908-8.1119346 5.4510592-13 5.55-4.8880654-.0989408-9.5476129-2.0882092-13-5.55-2.66-.13-4 2.55-4 2.55-2-3-1-5-1-5-1.72418036-.6054-3.64129506-.2219771-5 1 0-3.84 2.94-5.9 4.31-6.66-.78285654-1.6767889-1.22798495-3.4912818-1.31-5.34.03759003-2.087761.45436439-4.1513024 1.23-6.09.36678604.0613607.73811967.0914689 1.11.09 0 0 7.88-.15 6.66-6-1-3-3-3-6-5-1.9821273-1.4602805-3.39592188-3.5632999-4-5.95 1.55-.31 3.66 1.9 7 3.31.5382129.2281911 1.0891257.4251842 1.65.59 1.6850116.3723072 3.2432823 1.1790225 4.52 2.34 2.5797719.497333 5.2028478.7351853 7.83.71 2.6174701.0198913 5.2303997-.2213022 7.8-.72 1.2767177-1.1609775 2.8349884-1.9676928 4.52-2.34.5712494-.1669811 1.1322127-.3673251 1.68-.6 3.36-1.41 5.47-3.62 7-3.31-.5911621 2.4060055-2.0064419 4.5289252-4 6-3 2-5 2-6 5-1.22 5.85 6.66 6 6.66 6 .3718803.0014689.743214-.0286393 1.11-.09.7720837 1.929299 1.188793 3.9823547 1.23 6.06-.0820151 1.8487182-.5271435 3.6632111-1.31 5.34 1.37.76 4.31 2.82 4.31 6.66-1.3587049-1.2219771-3.2758196-1.6054-5-1z" fill="#95a5a5"/><path id="Shape" d="m38 19.34c-.5382129.2281911-1.0891257.4251842-1.65.59-1.6850116.3723072-3.2432823 1.1790225-4.52 2.34-2.5790958.5040438-5.2021778.7485968-7.83.73-2.6174701.0198913-5.2303997-.2213022-7.8-.72-1.2767177-1.1609775-2.8349884-1.9676928-4.52-2.34-.5712494-.1669811-1.1322127-.3673251-1.68-.6.057711-1.4966445.3969648-2.9690063 1-4.34 0 0 4 3 13 3s13-3 13-3c.6030352 1.3709937.942289 2.8433555 1 4.34z" fill="#f3d55b"/><path id="Shape" d="m45 11c-2.2506759-.9805345-4.7267967-1.32636138-7.16-1-.6887703.090571-1.36177.275646-2 .55.6870667 1.3883409 1.081879 2.9029227 1.16 4.45 0 0-4 3-13 3s-13-3-13-3 0-15 13-15 20 4.08 25 9-2 3-4 2z" fill="#3b97d3"/><path id="Shape" d="m37.84 10c-.6887703.090571-1.36177.275646-2 .55-.5668733-1.06970249-1.3541999-2.00699608-2.31-2.75-.4418278-.33137085-.5313708-.9581722-.2-1.4s.9581722-.53137085 1.4-.2c1.3248531 1.00054788 2.3911832 2.30345928 3.11 3.8z" fill="#2980ba"/><path id="Shape" d="m42.77 32.91c-.366786.0613607-.7381197.0914689-1.11.09 0 0-7.88-.15-6.66-6 1-3 3-3 6-5 1.9935581-1.4710748 3.4088379-3.5939945 4-6 .466202.1108263.8670588.4069548 1.11.82 2.53 3.69 3.46 14.99-3.34 16.09z" fill="#fb7b76"/><path id="Shape" d="m12 35c-.1568771.0018772-.3116796-.0359634-.45-.11-.490313-.2495756-.6869243-.8483464-.44-1.34.7314062-1.4986211 2.2240164-2.4770674 3.89-2.55.5522847 0 1 .4477153 1 1s-.4477153 1-1 1c-.9155476.0682216-1.724462.6214886-2.12 1.45-.1678096.3330988-.5070508.5451245-.88.55z" fill="#7f8c8d"/><path id="Shape" d="m36 35c-.3765582-.0011413-.7205498-.2137203-.89-.55-.3905028-.8283726-1.1966968-1.3823922-2.11-1.45-.5522847 0-1-.4477153-1-1s.4477153-1 1-1c1.6659836.0729326 3.1585938 1.0513789 3.89 2.55.2469243.4916536.050313 1.0904244-.44 1.34-.1383204.0740366-.2931229.1118772-.45.11z" fill="#7f8c8d"/><path id="Shape" d="m24 54c-.5522847 0-1-.4477153-1-1v-4c0-.5522847.4477153-1 1-1s1 .4477153 1 1v4c0 .5522847-.4477153 1-1 1z" fill="#464f5d"/><path id="Shape" d="m20 41c0 1.6568542-1.3431458 3-3 3s-3-1.3431458-3-3c-.0021716-.3415805.0588549-.6806165.18-1 1.5531736-.8878344 3.3662171-1.2094464 5.13-.91.4450506.5370915.6890386 1.2124784.69 1.91z" fill="#65ddb9"/><path id="Shape" d="m18.8 41.2c0 .9941125-.8058875 1.8-1.8 1.8s-1.8-.8058875-1.8-1.8c.0008388-.2049367.0380843-.4080941.11-.6.9301612-.5294214 2.015012-.7202421 3.07-.54.2708744.3181024.4197501.7221938.42 1.14z" fill="#2c2f38"/><path id="Shape" d="m34 41c.0018215 1.3236782-.8641009 2.4921143-2.1310363 2.8755228-1.2669354.3834086-2.6354238-.1088349-3.3678522-1.2114119-.7324283-1.1025771-.6556756-2.5548764.1888885-3.5741109 1.7637829-.2994464 3.5768264.0221656 5.13.91.1211451.3193835.1821716.6584195.18 1z" fill="#65ddb9"/><path id="Shape" d="m32.8 41.2c0 .9941125-.8058875 1.8-1.8 1.8s-1.8-.8058875-1.8-1.8c.0002499-.4178062.1491256-.8218976.42-1.14 1.054988-.1802421 2.1398388.0105786 3.07.54.0719157.1919059.1091612.3950633.11.6z" fill="#2c2f38"/><path id="Shape" d="m27 47c-.1874269 1.5727003-1.4272997 2.8125731-3 3-1.5727003-.1874269-2.8125731-1.4272997-3-3 0-1.1 1.34-1 3-1s3-.1 3 1z" fill="#fb7b76"/><g fill="#464f5d"><path id="Shape" d="m13 42c-.2163702 0-.4269038-.0701779-.6-.2-.4325776-.3269805-.5257332-.9391461-.21-1.38.1-.13 2.44-3.21 8-2.21.5400738.1012084.8973173.6192115.8 1.16-.0463079.261292-.1945721.493464-.4121427.6453883-.2175705.1519242-.4866048.2111417-.7478573.1646117-4.26-.78-5.95 1.34-6 1.43-.1972372.256675-.5065181.4019997-.83.39z"/><path id="Shape" d="m35 42c-.3147573 0-.6111456-.1481942-.8-.4-.08-.11-1.78-2.2-6-1.43-.2672168.0585447-.5467516.0050647-.7734873-.1479818-.2267356-.1530466-.3808754-.392297-.4265127-.6620182-.0973173-.5407885.2599262-1.0587916.8-1.16 5.55-1 7.89 2.08 8 2.21.1570297.2146346.2220956.4829786.180811.7456989-.0412846.2627202-.1855188.4981742-.400811.6543011-.1688104.1222258-.3715911.1886539-.58.19z"/></g></g></g></svg>